<svg width="512" height="512" viewBox="0 0 512 512" fill="none" xmlns="http://www.w3.org/2000/svg">
<path d="M0 256C0 114.615 114.615 0 256 0C287.226 0 317.147 5.59101 344.816 15.8266L321.305 318.694L261.224 261.224V177.633L175.02 99.2653H125.388L99.2652 458.426C38.8719 411.597 0 338.338 0 256Z" fill="#012750"/>
<path d="M512 256C512 397.385 397.384 512 256 512C224.774 512 194.853 506.41 167.184 496.174L188.082 198.531L250.776 261.224V344.817L329.143 415.348H378.776L411.006 52.2451C472.385 99.0109 512 172.88 512 256Z" fill="#3274BA"/>
<path d="M146.285 161.959L161.959 177.632L158.039 229.877L154.121 282.121H135.836L146.285 161.959Z" fill="#012750"/>
<path d="M120.163 473.03L130.612 360.489L148.898 355.266L138.449 483.476C132.199 480.239 126.099 476.753 120.163 473.03Z" fill="#012750"/>
<path d="M344.816 339.592L361.303 355.265L370.938 229.878H352.653L344.816 339.592Z" fill="#3274BA"/>
<path d="M390.036 38.0483L379.587 150.589L361.302 155.812L371.751 27.6025C378 30.8388 384.1 34.3252 390.036 38.0483Z" fill="#3274BA"/>
</svg>
